<?xml version="1.0" encoding="utf-8"?>
<!-- Generator: Adobe Illustrator 22.0.1, SVG Export Plug-In . SVG Version: 6.00 Build 0)  -->
<svg version="1.1" xmlns="http://www.w3.org/2000/svg" xmlns:xlink="http://www.w3.org/1999/xlink" x="0px" y="0px"
	 viewBox="0 0 811.9 247.9" style="enable-background:new 0 0 811.9 247.9;" xml:space="preserve">
<style type="text/css">
	.st0{fill:#3A5853;}
	.st1{fill:#DDDB1C;}
</style>
<g id="Camada_1">
	<g>
		<path class="st0" d="M56.6,202.4h137.7c4.7,0,8.5-3.8,8.5-8.5V56.1c0-4.7-3.8-8.5-8.5-8.5H56.6c-4.7,0-8.5,3.8-8.5,8.5v137.7
			C48,198.6,51.9,202.4,56.6,202.4z"/>
		<path class="st1" d="M149.2,89.1c0-1.1,0.3-2,0.8-2.9c0.5-0.9,1.2-1.6,2.2-2.2c0.9-0.5,1.9-0.8,3-0.8c1.1,0,2.1,0.3,3,0.8
			c0.9,0.5,1.6,1.3,2.1,2.2c0.5,0.9,0.8,1.9,0.8,2.9c0,1.1-0.3,2.1-0.8,3c-0.5,0.9-1.3,1.6-2.2,2.1c-0.9,0.5-1.9,0.8-2.9,0.8
			c-1.1,0-2.1-0.3-3-0.8c-0.9-0.5-1.6-1.3-2.2-2.2C149.5,91.2,149.2,90.2,149.2,89.1z M150.3,89.1c0,0.9,0.2,1.7,0.7,2.4
			s1,1.3,1.8,1.8c0.7,0.4,1.5,0.6,2.4,0.6c0.9,0,1.7-0.2,2.4-0.7c0.8-0.4,1.3-1,1.8-1.8c0.4-0.7,0.6-1.5,0.6-2.4
			c0-0.9-0.2-1.7-0.7-2.4c-0.4-0.7-1-1.3-1.8-1.8c-0.7-0.4-1.6-0.6-2.4-0.6c-0.9,0-1.7,0.2-2.4,0.6c-0.7,0.4-1.3,1-1.8,1.8
			C150.5,87.4,150.3,88.2,150.3,89.1z M155.7,86c0.6,0,1.1,0.2,1.4,0.5c0.4,0.3,0.5,0.7,0.5,1.2c0,0.5-0.2,0.9-0.5,1.2
			c-0.3,0.3-0.7,0.5-1.3,0.6v0c0.2,0.1,0.4,0.2,0.6,0.4c0.2,0.2,0.4,0.6,0.8,1.1l0.7,1.3h-1.4l-0.3-0.6c-0.3-0.5-0.5-0.9-0.7-1.3
			s-0.4-0.5-0.6-0.6c-0.2-0.1-0.4-0.2-0.7-0.2h-0.5v2.6h-1.2V86H155.7z M155.2,88.7c0.4,0,0.7-0.1,0.9-0.2c0.2-0.2,0.3-0.4,0.3-0.7
			c0-0.3-0.1-0.5-0.3-0.7c-0.2-0.2-0.5-0.2-0.9-0.2h-1.4v1.8H155.2z"/>
		<path class="st1" d="M157,123.9c-1.2-3.9-3.1-7.5-5.5-10.7c-2.5-3.2-5.7-5.7-9.6-7.5c-3.9-1.9-8.4-2.8-13.6-2.8
			c-3.8,0-7.2,0.5-10.1,1.5c-2.9,1-5.2,2.1-6.9,3.4V81H88.8v75.7c3-2.6,6.8-4.1,11-4.1c8,0,14.7,5.5,16.4,13c1.3,0.7,2.9,1.4,4.9,2
			c2.4,0.8,5.3,1.2,8.7,1.2c4.6,0,9.2-1.1,13.6-3.4c4.5-2.3,8.1-5.9,11-10.7c2.9-4.9,4.3-11,4.3-18.4
			C158.8,131.9,158.2,127.8,157,123.9z M131,148.5c-2.8,2.3-5.5,3.4-8.3,3.4c-4.4,0-8.2-1.5-11.4-4.5v-24.3c4.2-2.7,8-4.1,11.4-4.1
			c3.4,0,6.3,1.4,8.8,4.3c2.5,2.9,3.7,7,3.7,12.5C135.1,142,133.7,146.2,131,148.5z"/>
		<path class="st1" d="M452.8,142.7c0,4.3-1.6,7.7-4.7,10.4c-3.1,2.7-7.8,4-13.9,4c-3.4,0-6.5-0.3-9.2-0.9c-2.7-0.6-5.6-1.5-8.8-2.7
			v-11.7c2.8,1.6,5.2,2.8,7.2,3.6c2,0.8,4.3,1.2,6.7,1.2c4.1,0,6.2-1.1,6.2-3.4c0-0.8-0.3-1.4-0.9-2c-0.6-0.6-1.6-1.3-3.1-2
			c-1.5-0.7-3.4-1.6-5.9-2.7c-3-1.3-5.6-3.1-7.8-5.4c-2.1-2.3-3.2-5-3.2-8.3c0-2.3,0.7-4.5,2.1-6.7c1.4-2.1,3.6-3.9,6.4-5.2
			c2.9-1.4,6.3-2,10.4-2c1,0,2.2,0.1,3.7,0.2c1.5,0.1,3.4,0.5,5.7,1.1c2.3,0.6,4.5,1.4,6.6,2.5v11.4c-1-0.6-1.8-1.1-2.4-1.5
			c-0.7-0.4-1.5-0.8-2.6-1.3c-1.1-0.5-2.4-0.9-3.9-1.3c-1.5-0.4-3-0.6-4.5-0.6c-1.9,0-3.2,0.4-3.9,1.1c-0.7,0.7-1.1,1.5-1.1,2.2
			c0,0.8,0.4,1.5,1.1,2.1c0.7,0.7,2.4,1.5,4.9,2.4c3.7,1.4,6.6,2.8,8.8,4.3c2.2,1.5,3.7,3.1,4.7,4.9
			C452.3,138.2,452.8,140.3,452.8,142.7z"/>
		<path class="st1" d="M509.3,137h-32.7c0.6,2.8,2.2,5.1,4.7,6.9c2.5,1.8,5.3,2.7,8.5,2.7c5.5,0,11.7-1.6,18.3-4.7v10.2
			c-2.4,1.2-5.3,2.4-8.7,3.4c-3.4,1-7.8,1.5-13.1,1.5c-5.7,0-10.6-1.1-14.6-3.2c-4-2.1-7-5-9-8.7c-2-3.7-3-7.8-3-12.4
			c0-4.6,1-8.6,3-12.3c2-3.6,5-6.4,9-8.5c4-2.1,8.9-3.1,14.6-3.1c3.8,0,7.4,0.8,10.9,2.4c3.5,1.6,6.4,4.3,8.7,8
			c2.3,3.7,3.4,8.5,3.4,14.3V137z M493.9,128.9c0-3-0.7-5.4-2.2-7.1c-1.5-1.8-3.6-2.7-6.4-2.7c-2.7,0-5,0.9-6.6,2.7
			c-1.7,1.8-2.5,4.2-2.5,7.1H493.9z"/>
		<path class="st1" d="M564.1,119.7H556c2.9,2.5,4.3,5.6,4.3,9.2c0,1.9-0.4,3.8-1.2,5.5c-0.8,1.8-2,3.3-3.6,4.7
			c-1.6,1.4-3.5,2.5-5.8,3.4c-2.3,0.9-4.9,1.4-7.9,1.6c-3.8,0.2-5.7,1.2-5.7,3.1c0,0.7,0.2,1.3,0.7,1.6c0.5,0.3,1.3,0.6,2.3,0.8
			c1,0.2,2.8,0.4,5.3,0.6c2.8,0.2,5.5,0.7,7.9,1.3c2.4,0.6,4.7,1.9,6.8,3.8c2.1,1.9,3.1,4.7,3.1,8.4c0,2.9-0.8,5.4-2.4,7.7
			c-1.6,2.2-4.1,4-7.6,5.2c-3.5,1.2-8.1,1.9-13.9,1.9c-8.3,0-14.4-1.1-18.2-3.3c-3.9-2.2-5.8-5.2-5.8-8.9c0-1,0.3-2.2,0.8-3.5
			c0.5-1.3,1.6-2.6,3.2-3.8c1.6-1.2,4-2,7.1-2.5c-1.1-0.4-2-1.2-2.8-2.3c-0.8-1.1-1.2-2.3-1.2-3.6c0-1.6,0.6-3.2,1.7-4.8
			c1.1-1.6,2.9-2.6,5.4-3.1c-3.5-0.9-6.5-2.6-9-5.2c-2.5-2.5-3.8-5.8-3.8-9.8c0-3,0.6-5.7,1.8-8c1.2-2.3,2.8-4.1,4.9-5.6
			c2.1-1.4,4.5-2.5,7.2-3.2c2.7-0.7,5.7-1,9-1h25.5V119.7z M549.2,164.9c0-2-1.1-3.4-3.3-3.9c-2.2-0.6-4.4-0.9-6.7-0.9
			c-3.8,0-6.6,0.4-8.2,1.2c-1.7,0.8-2.5,2.1-2.5,3.9c0,3.5,3.5,5.2,10.5,5.2c3.1,0,5.6-0.5,7.5-1.3
			C548.3,168.1,549.2,166.7,549.2,164.9z M546,127.5c0-2.3-0.8-4.2-2.4-5.6c-1.6-1.4-3.4-2.1-5.4-2.1c-2.5,0-4.5,0.8-6,2.6
			c-1.4,1.7-2.2,3.5-2.2,5.4c0,1.3,0.3,2.5,0.9,3.7c0.6,1.1,1.5,2,2.6,2.7c1.1,0.7,2.5,1,4.1,1c2.4,0,4.3-0.7,5.9-2.2
			C545.2,131.4,546,129.6,546,127.5z"/>
		<path class="st1" d="M618.9,156.2h-16.4v-6.6c-2.3,2.5-4.8,4.4-7.3,5.6c-2.5,1.2-5.6,1.8-9.2,1.8c-7,0-11.5-2-13.6-6.1
			c-2.1-4.1-3.1-8.7-3.1-13.9v-27.3h16.4v25.1c0,2.5,0.4,4.7,1.3,6.6c0.8,1.9,2.7,2.9,5.5,2.9c2.4,0,4.3-0.7,5.7-2.1
			c1.4-1.4,2.8-3.1,4.3-5.2v-27.3h16.4V156.2z"/>
		<path class="st1" d="M670.3,113.1l-6.1,16.5c-2.5-2.4-5-3.6-7.6-3.6c-2.3,0-4.3,0.8-6,2.4c-1.7,1.6-3.3,4.5-4.9,8.7v20h-16.4
			v-46.5h16.4v11.2c1-2.8,2.9-5.5,5.5-8.1c2.6-2.6,5.7-3.9,9.2-3.9c1.9,0,3.5,0.3,4.9,0.8C666.8,111.2,668.4,112,670.3,113.1z"/>
		<path class="st1" d="M724.4,133c0,4.6-1,8.7-3,12.4c-2,3.6-5,6.5-9,8.6c-4,2.1-8.9,3.1-14.6,3.1c-5.8,0-10.6-1.1-14.6-3.1
			c-4-2.1-7-5-9-8.6c-2-3.6-3-7.7-3-12.4c0-3.5,0.6-6.7,1.7-9.5c1.1-2.9,2.8-5.4,5.1-7.6c2.3-2.2,5.1-3.9,8.4-5.1
			c3.3-1.2,7.1-1.8,11.5-1.8c4.4,0,8.3,0.6,11.6,1.8c3.4,1.2,6.1,2.9,8.4,5c2.2,2.2,3.9,4.7,5,7.6
			C723.9,126.3,724.4,129.5,724.4,133z M707.1,133c0-3.7-0.8-6.6-2.4-8.6c-1.6-2.1-3.9-3.1-7-3.1c-3,0-5.3,1-6.9,3.1
			c-1.6,2.1-2.4,5-2.4,8.6c0,3.7,0.8,6.5,2.4,8.7c1.6,2.1,3.9,3.2,6.9,3.2c3,0,5.4-1.1,7-3.2C706.3,139.5,707.1,136.7,707.1,133z"/>
		<path class="st1" d="M767.7,142.7c0,4.3-1.6,7.7-4.7,10.4c-3.1,2.7-7.8,4-13.9,4c-3.4,0-6.5-0.3-9.2-0.9c-2.7-0.6-5.6-1.5-8.8-2.7
			v-11.7c2.8,1.6,5.2,2.8,7.2,3.6c2,0.8,4.3,1.2,6.7,1.2c4.1,0,6.2-1.1,6.2-3.4c0-0.8-0.3-1.4-0.9-2c-0.6-0.6-1.6-1.3-3.1-2
			c-1.5-0.7-3.4-1.6-5.9-2.7c-3-1.3-5.6-3.1-7.8-5.4c-2.1-2.3-3.2-5-3.2-8.3c0-2.3,0.7-4.5,2.1-6.7c1.4-2.1,3.6-3.9,6.4-5.2
			c2.9-1.4,6.3-2,10.4-2c1,0,2.2,0.1,3.7,0.2c1.5,0.1,3.4,0.5,5.7,1.1c2.3,0.6,4.5,1.4,6.6,2.5v11.4c-1-0.6-1.8-1.1-2.4-1.5
			s-1.5-0.8-2.6-1.3c-1.1-0.5-2.4-0.9-3.9-1.3c-1.5-0.4-3-0.6-4.5-0.6c-1.9,0-3.2,0.4-3.9,1.1c-0.7,0.7-1.1,1.5-1.1,2.2
			c0,0.8,0.4,1.5,1.1,2.1c0.7,0.7,2.4,1.5,4.9,2.4c3.7,1.4,6.6,2.8,8.8,4.3c2.2,1.5,3.7,3.1,4.7,4.9
			C767.3,138.2,767.7,140.3,767.7,142.7z"/>
		<path class="st0" d="M333.5,157.1H317v-46.5h16.5V157.1z M332.2,99.9c0,1.9-0.7,3.5-2.1,4.9c-1.4,1.3-3,2-4.9,2
			c-1.3,0-2.4-0.3-3.5-0.9c-1-0.6-1.9-1.4-2.5-2.5s-0.9-2.2-0.9-3.5c0-1.9,0.7-3.5,2-4.9c1.3-1.4,3-2.1,4.9-2.1
			c1.9,0,3.5,0.7,4.9,2.1C331.5,96.4,332.2,98,332.2,99.9z"/>
		<path class="st0" d="M381.5,153.6c-1.7,0.8-4.1,1.6-7.1,2.4c-3,0.8-5.9,1.1-8.6,1.1c-11.8,0-17.8-5.8-17.8-17.3v-18.5h-7.4v-2.9
			l22-22.5h1.9v13.9h15.7v11.4h-15.7v14.9c0,1.7,0.1,3.1,0.3,4.2s0.8,2,1.8,2.7c1,0.7,2.5,1.1,4.5,1.1c2.6,0,6.1-1.1,10.3-3.3V153.6
			z"/>
		<path class="st0" d="M306.4,124.3c-0.9-2.9-2.2-5.5-4-7.8c-1.8-2.3-4.1-4.1-7-5.5c-2.9-1.4-6.1-2-9.9-2c-2.8,0-5.3,0.4-7.4,1.1
			c-2.1,0.7-3.8,1.5-5,2.5V93.1h-16.4v55.1c2.2-1.9,5-3,8-3c5.8,0,10.7,4,12,9.5c0.9,0.5,2.1,1,3.6,1.5c1.8,0.6,3.9,0.8,6.3,0.8
			c3.4,0,6.7-0.8,9.9-2.5c3.2-1.7,5.9-4.3,8-7.8c2.1-3.5,3.1-8,3.1-13.4C307.7,130.2,307.3,127.2,306.4,124.3z M287.5,142.3
			c-2,1.7-4,2.5-6.1,2.5c-3.2,0-6-1.1-8.3-3.3v-17.7c3.1-2,5.8-3,8.3-3c2.5,0,4.6,1,6.4,3.1c1.8,2.1,2.7,5.1,2.7,9.1
			C290.5,137.5,289.5,140.6,287.5,142.3z"/>
	</g>
</g>
<g id="Camada_2">
</g>
</svg>
